<?xml version="1.0" encoding="utf-8"?>
<!-- Generator: Adobe Illustrator 25.1.0, SVG Export Plug-In . SVG Version: 6.00 Build 0)  -->
<svg version="1.1" id="Layer_1" xmlns="http://www.w3.org/2000/svg" xmlns:xlink="http://www.w3.org/1999/xlink" x="0px" y="0px"
	 viewBox="0 0 1024 1024" style="enable-background:new 0 0 1024 1024;" xml:space="preserve">
<style type="text/css">
	.st0{fill:#E94924;}
</style>
<g>
	<path class="st0" d="M463.9,477.5c-7.3,20.1-14.4,39.5-21.4,58.8c-1.9,5.2-3.6,10.3-5.7,15.4c-3,7.5-8.8,11.3-17.2,12.5
		c0.2-1.1,0.3-1.9,0.5-2.5c8.6-23.6,17.3-47.1,25.8-70.7C448.8,483,454.5,478.7,463.9,477.5z"/>
	<path class="st0" d="M818.9,477.5c-9.4,25.6-18.3,50.5-27.7,75.2c-2.7,7.1-8.8,10.4-17.2,11.7c1.5-4,2.7-7.4,3.9-10.7
		c7.6-20.9,15.3-41.8,22.9-62.7C803.8,482.9,809.5,478.7,818.9,477.5z"/>
	<path class="st0" d="M232.3,564.3c1.8-4.8,3.2-8.6,4.6-12.5c7.4-20.2,14.7-40.5,22.2-60.7c3.2-8.6,9.4-13.2,17.7-13
		c-3.4,9.3-6.7,18.4-10,27.5c-5.5,15.1-11.1,30.2-16.6,45.3C247.4,558.7,241.7,562.8,232.3,564.3z"/>
	<path class="st0" d="M587.3,564.4c3.5-9.7,6.7-18.2,9.8-26.8c5.7-15.6,11.4-31.2,17-46.7c2.9-7.9,8.6-12.2,17.9-13.4
		c-2.5,6.9-4.8,13.2-7.1,19.5c-6.6,18.1-13.2,36.1-19.8,54.2C602.3,558.9,596.5,562.8,587.3,564.4z"/>
	<path class="st0" d="M208.8,564.3c3.6-9.7,6.8-18.7,10.1-27.6c3.1-8.4,6-16.9,9.3-25.2c2.9-7.5,8.6-11.4,17.1-12.3
		c-0.5,1.7-0.8,3-1.2,4.2c-5.7,15.7-11.5,31.5-17.2,47.2C224,558.7,218.1,563,208.8,564.3z"/>
	<path class="st0" d="M432.3,499.6c-6.7,18.3-13,36.1-19.8,53.7c-2.4,6.2-8.4,9.7-16.2,10.6c0.2-1.2,0.3-2.2,0.7-3.2
		c5.8-16.1,11.6-32.2,17.5-48.2C417.6,504.1,423.5,499.9,432.3,499.6z"/>
	<path class="st0" d="M563.8,564.3c6.7-18.3,12.9-35.6,19.4-52.8c2.8-7.5,8.5-11.5,17.1-12.3c-0.5,1.8-0.9,3.2-1.4,4.6
		c-5.7,15.6-11.4,31.2-17,46.8C579,558.7,573.2,563,563.8,564.3z"/>
	<path class="st0" d="M787.2,499.8c-2.8,7.6-5.5,15-8.2,22.5c-3.5,9.5-6.9,19.1-10.4,28.6c-2.9,7.9-8.7,12-18,13.5
		c1.3-3.7,2.4-6.6,3.4-9.5c5.2-14.2,10.3-28.4,15.6-42.6C772.8,503.8,779,499.5,787.2,499.8z"/>
</g>
</svg>
