<?xml version="1.0" encoding="UTF-8"?>
<!DOCTYPE svg PUBLIC "-//W3C//DTD SVG 1.1//EN" "http://www.w3.org/Graphics/SVG/1.1/DTD/svg11.dtd">
<!-- Creator: CorelDRAW 2019 (64-Bit) -->
<svg xmlns="http://www.w3.org/2000/svg" xml:space="preserve" width="365mm" height="125mm" version="1.1" style="shape-rendering:geometricPrecision; text-rendering:geometricPrecision; image-rendering:optimizeQuality; fill-rule:evenodd; clip-rule:evenodd"
viewBox="0 0 36500 12500"
 xmlns:xlink="http://www.w3.org/1999/xlink">
 <defs>
  <style type="text/css">
   <![CDATA[
    .fil0 {fill:#1E1F29;fill-rule:nonzero}
    .fil1 {fill:#EA480F;fill-rule:nonzero}
   ]]>
  </style>
 </defs>
 <g id="Слой_x0020_1">
  <metadata id="CorelCorpID_0Corel-Layer"/>
  <g id="_2657800269456">
   <path class="fil0" d="M11475.92 4556.29l-1.63 1071.48c-96.15,-18.3 -183.2,-27.39 -261.17,-27.5 -438.13,-0.65 -780.59,126.38 -1027.01,381.02 -246.54,254.82 -370.02,622.27 -370.72,1102.48l-3.73 2331.98 -1125.55 0 7.46 -4815.64 1071.59 0 -1.1 709.74c324.74,-503.69 895.49,-754.84 1711.86,-753.56z"/>
   <path class="fil0" d="M15587.62 8109.93c270.67,-275.56 406.32,-638.64 407.02,-1088.89 0.58,-450.2 -133.9,-813.4 -403.52,-1090.13 -269.79,-276.43 -611.72,-415.06 -1025.85,-415.7 -414.19,-0.64 -755.24,136.94 -1022.53,412.67 -267.63,275.68 -401.6,638.59 -402.24,1088.79 -0.7,450.13 132.1,813.62 398.86,1090.06 266.53,276.55 607.06,415.06 1021.31,415.76 414.07,0.58 756.46,-136.88 1026.95,-412.56zm-2342.58 1058.77c-389.89,-210.53 -693.94,-503.68 -912.45,-879.29 -218.46,-375.32 -327.37,-800.29 -326.55,-1274.49 0.7,-474.21 110.83,-897.13 330.45,-1269.07 219.68,-371.77 524.78,-662.36 915.25,-871.9 390.3,-209.48 828.84,-313.85 1315.05,-313.15 492.09,0.82 933.08,106.52 1323.08,317.17 389.71,210.76 693.89,502.35 912.46,874.87 218.51,372.52 327.48,795.85 326.78,1270.06 -0.88,474.09 -111.01,898.82 -330.69,1273.5 -219.79,374.79 -524.9,666.96 -915.31,876.33 -390.47,209.6 -831.92,313.84 -1323.96,313.14 -486.32,-0.7 -924.34,-106.4 -1314.11,-317.17z"/>
   <polygon class="fil0" points="33437.69,9413.73 32206.78,7746.21 30961.69,9409.94 29719.17,9408.02 31595.7,6970.98 29807.61,4600.13 31059.23,4602.06 32236.17,6179.61 33418.18,4605.67 34633.64,4607.65 32829.36,6954.84 34707.23,9415.71 "/>
   <path class="fil0" d="M7645.28 6172.56l-2579.57 0 0 1095.25 1471.27 0 -1.35 881.98c-372.57,215.48 -804.88,322.82 -1297.15,322.12 -438.19,-0.76 -829.6,-97.14 -1174.5,-289.96 -344.9,-192.46 -614.69,-457.07 -808.97,-793.58 -194.68,-336.34 -291.64,-714.63 -291,-1134.93 0.7,-432.07 98.77,-816.08 294.44,-1152.01 195.44,-335.86 465.99,-596.45 811.59,-782.1 345.37,-185.42 740.04,-277.95 1184.35,-277.25 678.15,0.93 1257.12,242.06 1736.68,723.02l739.4 -719.23c-293.63,-336.45 -656.3,-592.14 -1088.32,-767.07 -429.14,-173.38 -905.94,-261.28 -1430.26,-263.23l-30.12 0c-640.12,1.95 -1217.48,140.55 -1731.72,415.84 -519.54,278.41 -926.91,663.52 -1221.82,1155.09 -294.73,491.98 -442.79,1046.94 -443.72,1665.13 -0.94,618.31 145.26,1173.86 438.6,1666.36 293.27,492.79 697.9,879.01 1213.65,1158.88 515.87,279.87 1094.72,420.42 1737.21,421.29 456.14,0.76 900.45,-67.64 1332.88,-204.93 432.37,-137.35 810.77,-334.82 1135.28,-592.5l2.27 -1432.92 0.88 -1095.25z"/>
   <polygon class="fil0" points="23190.77,8179.36 21902.6,4603.01 20951.83,4603.01 19625.38,8155.82 18359.63,4603.01 17298.12,4603.01 19056.19,9415.39 20137.23,9415.74 21402.29,6105.69 22637.79,9415.74 23722.72,9415.74 25505.98,4603.01 24506.03,4603.01 "/>
   <path class="fil1" d="M29804 3015.57c-599.44,1.3 -1134.49,376.56 -1339.66,940.05l-1988.19 5460.4c600.71,0 1137.29,-375.67 1342.78,-940.14l1988.18 -5460.31 -3.11 0z"/>
   <path class="fil1" d="M27506.51 4600l-1410.37 3875.97c-205.35,564.34 -741.79,940.01 -1342.35,940.01l-0.15 0 1410.34 -3875.91c205.35,-564.4 741.78,-940.07 1342.35,-940.07l0.18 0z"/>
  </g>
 </g>
</svg>
