<?xml version="1.0" encoding="utf-8"?>
<!-- Generator: Adobe Illustrator 24.0.0, SVG Export Plug-In . SVG Version: 6.00 Build 0)  -->
<svg version="1.1" id="Layer_1" xmlns="http://www.w3.org/2000/svg" xmlns:xlink="http://www.w3.org/1999/xlink" x="0px" y="0px"
	 viewBox="0 0 1034.6 354.3" style="enable-background:new 0 0 1034.6 354.3;" xml:space="preserve">
<style type="text/css">
	.st0{fill:#FFFFFF;}
	.st1{fill:#EA480F;}
</style>
<g id="Слой_x0020_1">
	<g id="_2657800269456">
		<path class="st0" d="M325.3,129.2l0,30.4c-2.7-0.5-5.2-0.8-7.4-0.8c-12.4,0-22.1,3.6-29.1,10.8c-7,7.2-10.5,17.6-10.5,31.3
			l-0.1,66.1h-31.9l0.2-136.5h30.4l0,20.1C286,136.2,302.2,129.1,325.3,129.2L325.3,129.2z"/>
		<path class="st0" d="M441.9,229.9c7.7-7.8,11.5-18.1,11.5-30.9c0-12.8-3.8-23.1-11.4-30.9c-7.6-7.8-17.3-11.8-29.1-11.8
			c-11.7,0-21.4,3.9-29,11.7c-7.6,7.8-11.4,18.1-11.4,30.9c0,12.8,3.7,23.1,11.3,30.9c7.6,7.8,17.2,11.8,29,11.8
			C424.5,241.6,434.2,237.7,441.9,229.9z M375.4,259.9c-11.1-6-19.7-14.3-25.9-24.9c-6.2-10.6-9.3-22.7-9.3-36.1
			c0-13.4,3.1-25.4,9.4-36c6.2-10.5,14.9-18.8,25.9-24.7c11.1-5.9,23.5-8.9,37.3-8.9c13.9,0,26.4,3,37.5,9c11,6,19.7,14.2,25.9,24.8
			c6.2,10.6,9.3,22.6,9.3,36c0,13.4-3.1,25.5-9.4,36.1c-6.2,10.6-14.9,18.9-25.9,24.8c-11.1,5.9-23.6,8.9-37.5,8.9
			C398.9,268.9,386.5,265.9,375.4,259.9z"/>
		<polygon class="st0" points="947.8,266.8 912.9,219.6 877.7,266.7 842.4,266.7 895.6,197.6 844.9,130.4 880.4,130.5 913.8,175.2 
			947.3,130.6 981.7,130.6 930.6,197.1 983.8,266.9 		"/>
		<path class="st0" d="M216.7,175h-73.1v31h41.7l0,25c-10.6,6.1-22.8,9.2-36.8,9.1c-12.4,0-23.5-2.8-33.3-8.2
			c-9.8-5.5-17.4-13-22.9-22.5c-5.5-9.5-8.3-20.3-8.2-32.2c0-12.2,2.8-23.1,8.3-32.7c5.5-9.5,13.2-16.9,23-22.2
			c9.8-5.3,21-7.9,33.6-7.9c19.2,0,35.6,6.9,49.2,20.5l21-20.4c-8.3-9.5-18.6-16.8-30.9-21.7c-12.2-4.9-25.7-7.4-40.5-7.5h-0.9
			c-18.1,0.1-34.5,4-49.1,11.8c-14.7,7.9-26.3,18.8-34.6,32.7c-8.4,13.9-12.6,29.7-12.6,47.2c0,17.5,4.1,33.3,12.4,47.2
			c8.3,14,19.8,24.9,34.4,32.9c14.6,7.9,31,11.9,49.2,11.9c12.9,0,25.5-1.9,37.8-5.8c12.3-3.9,23-9.5,32.2-16.8l0.1-40.6L216.7,175
			L216.7,175z"/>
		<polygon class="st0" points="657.4,231.9 620.9,130.5 593.9,130.5 556.3,231.2 520.4,130.5 490.3,130.5 540.2,266.9 570.8,266.9 
			606.7,173.1 641.7,266.9 672.5,266.9 723,130.5 694.7,130.5 		"/>
		<path class="st1" d="M844.8,85.5c-17,0-32.2,10.7-38,26.6l-56.4,154.8c17,0,32.2-10.6,38.1-26.6L844.8,85.5
			C844.9,85.5,844.8,85.5,844.8,85.5z"/>
		<path class="st1" d="M779.7,130.4l-40,109.9c-5.8,16-21,26.6-38.1,26.6h0l40-109.9C747.5,141,762.7,130.4,779.7,130.4L779.7,130.4
			L779.7,130.4z"/>
	</g>
</g>
</svg>
