<?xml version="1.0" encoding="utf-8"?>
<!-- Generator: Adobe Illustrator 24.0.0, SVG Export Plug-In . SVG Version: 6.00 Build 0)  -->
<svg version="1.1" id="Layer_1" xmlns="http://www.w3.org/2000/svg" xmlns:xlink="http://www.w3.org/1999/xlink" x="0px" y="0px"
	 viewBox="0 0 236.5 67.7" style="enable-background:new 0 0 236.5 67.7;" xml:space="preserve">
<style type="text/css">
	.st0{fill-rule:evenodd;clip-rule:evenodd;fill:url(#SVGID_1_);}
</style>
<title>logo</title>
<g id="Слой_2">
	<g id="Layer_1_1_">
		
			<linearGradient id="SVGID_1_" gradientUnits="userSpaceOnUse" x1="78.7517" y1="1009.2991" x2="166.9903" y2="921.0704" gradientTransform="matrix(1 0 0 1 0 -929.83)">
			<stop  offset="0" style="stop-color:#00BFE6"/>
			<stop  offset="1" style="stop-color:#8548D1"/>
		</linearGradient>
		<path class="st0" d="M71,26.1h5.4c4.8,0,7.9,3,7.9,7.8s-3.1,7.8-7.9,7.8H71V26.1z M41.4,37.9h5.7c0,0.8,0.1,1.6,0.4,2.3
			c0.3,0.8,0.8,1.4,1.4,1.9c0.8,0.6,1.8,0.8,2.8,0.8c0.8,0,1.6-0.2,2.4-0.5c0.7-0.3,1.2-0.8,1.5-1.4c0.3-0.6,0.5-1.3,0.5-2
			c0-2.3-1.3-3.5-4-3.5h-2.5v-4.1h1.9c2.8,0,4.1-1.1,4.1-3.2c0-0.8-0.3-1.6-0.9-2.2c-0.9-0.8-2-1.1-3.2-1c-2.7,0-4.1,1.6-4.1,4.7H42
			c0-2.2,0.7-4.3,2-6.1c1.3-1.8,3.9-2.8,7.7-2.8c1.7,0,3.4,0.3,5,0.9c1.2,0.5,2.3,1.3,3.1,2.4c0.7,1.1,1,2.3,1,3.6
			c0,1-0.2,2-0.7,2.9c-0.4,0.7-1,1.4-1.7,1.9c-0.7,0.4-1.4,0.7-2.1,0.9l0,0c1.5,0.1,2.8,0.7,3.8,1.8c1.1,1.2,1.6,2.8,1.5,4.4
			c0.2,1.8-0.5,3.6-1.9,4.9c-1.2,1-2.6,1.7-4.1,2.1c-1.2,0.3-2.5,0.5-3.8,0.5c-2.3,0.1-4.6-0.4-6.6-1.5c-1.4-0.8-2.5-2-3.2-3.5
			C41.6,40.7,41.4,39.3,41.4,37.9 M66.1,20.8c-0.3,0-0.7,0.2-0.7,0.6c0,0,0,0.1,0,0.1v25c0,0.3,0.2,0.7,0.6,0.7c0,0,0.1,0,0.1,0
			h10.3c7.5,0,13.5-5.4,13.5-13.2s-6-13.1-13.5-13.1H66.1L66.1,20.8z M93.5,20.8c-0.3,0-0.7,0.2-0.7,0.6c0,0,0,0.1,0,0.1v4
			c0,0.3,0.2,0.7,0.6,0.7c0,0,0.1,0,0.1,0h8.4v20.2c0,0.3,0.2,0.7,0.6,0.7c0,0,0.1,0,0.1,0h4.3c0.3,0,0.7-0.2,0.7-0.6
			c0,0,0-0.1,0-0.1V26.1h8.4c0.3,0,0.7-0.2,0.7-0.6c0,0,0-0.1,0-0.1v-4c0-0.3-0.2-0.7-0.6-0.7c0,0-0.1,0-0.1,0H93.5L93.5,20.8z
			 M131.9,25.6c4.4-0.2,8,3.2,8.2,7.6c0,0.2,0,0.5,0,0.7c0,4.5-3.7,8.2-8.2,8.2c-4.5,0-8.2-3.7-8.2-8.2c0,0,0,0,0,0
			c-0.2-4.4,3.1-8.1,7.5-8.3C131.4,25.5,131.7,25.5,131.9,25.6 M118,33.9c0,7.8,6.2,13.5,13.9,13.5c7.4,0.2,13.6-5.7,13.8-13.1
			c0-0.1,0-0.3,0-0.4c0-7.5-6.1-13.6-13.6-13.6c-0.1,0-0.1,0-0.2,0C124.2,20.4,118,26.2,118,33.9 M150,35.5c0,6.8,4.5,12,11.8,12
			s11.8-5.2,11.8-12V21.4c0-0.3-0.2-0.7-0.6-0.7c0,0-0.1,0-0.1,0h-4.3c-0.3,0-0.7,0.2-0.7,0.6c0,0,0,0.1,0,0.1v14
			c0,4.1-2.3,6.7-6.2,6.7s-6.2-2.8-6.2-6.7v-14c0-0.3-0.2-0.7-0.6-0.7c0,0-0.1,0-0.1,0h-4.3c-0.3,0-0.7,0.2-0.7,0.6c0,0,0,0.1,0,0.1
			v14.1H150z M180.1,20.8c-0.3,0-0.7,0.2-0.7,0.6c0,0,0,0.1,0,0.1v25c0,0.3,0.2,0.7,0.6,0.7c0,0,0.1,0,0.1,0h4.3
			c0.3,0,0.7-0.2,0.7-0.6c0,0,0-0.1,0-0.1v-6.3h7.6l3.2,6.6c0.2,0.3,0.5,0.5,0.9,0.5h4.7c0.4,0,0.6-0.3,0.4-0.7l-4.2-8
			c2.9-1.7,4.6-4.8,4.6-8.1c0-5.5-4.5-9.6-10.3-9.6L180.1,20.8L180.1,20.8z M185,34.8v-8.7h7c3,0,4.7,1.8,4.7,4.3s-1.7,4.4-4.7,4.4
			L185,34.8z"/>
	</g>
</g>
</svg>
